# xmcd CD database file
#
# Track frame offsets:
#	150
#	14904
#	32994
#	48532
#	67172
#	85449
#	102825
#	116780
#	133071
#	146325
#	165897
#
# Disc length: 2560 seconds
#
# Revision: 0
# Processed by: cddbd v1.5.2PL0 Copyright (c) Steve Scherf et al.
# Submitted via: CDex 1.51
#
DISCID=a009fe0b
DTITLE=Azar, Steve - Waitin' On Joe
DYEAR=1900
DGENRE=Country
TTITLE0=I Don't Have To Be Me ('Til Monday)
TTITLE1=How Long Is THis Gonna' Be
TTITLE2=Damn The Money
TTITLE3=Waitin' On Joe
TTITLE4=My Heart Wants To Run
TTITLE5=The Underdog
TTITLE6=One Good Reason Why
TTITLE7=Lay Your Heart Next To Mine
TTITLE8=Goin' To Beat The Devil (To See My Angel Tonight)
TTITLE9=You Don't Know How It Feels
TTITLE10=River's On The Rise
EXTD=
EXTT0=
EXTT1=
EXTT2=
EXTT3=
EXTT4=
EXTT5=
EXTT6=
EXTT7=
EXTT8=
EXTT9=
EXTT10=
PLAYORDER=
